<?xml version="1.0" standalone="no"?>
<!DOCTYPE svg PUBLIC "-//W3C//DTD SVG 20010904//EN"
 "http://www.w3.org/TR/2001/REC-SVG-20010904/DTD/svg10.dtd">
<svg version="1.0" xmlns="http://www.w3.org/2000/svg"
 width="800.000000pt" height="800.000000pt" viewBox="0 0 800.000000 800.000000"
 preserveAspectRatio="xMidYMid meet">

<g transform="translate(0.000000,800.000000) scale(0.100000,-0.100000)"
fill="#000000" stroke="none">
<path d="M3500 6875 l0 -125 -125 0 -125 0 0 -500 0 -500 -125 0 -125 0 0
-1000 0 -1000 -125 0 -125 0 0 -125 0 -125 -250 0 -250 0 0 125 0 125 -125 0
-125 0 0 250 0 250 125 0 125 0 0 125 0 125 125 0 125 0 0 500 0 500 -125 0
-125 0 0 125 0 125 -125 0 -125 0 0 -125 0 -125 -125 0 -125 0 0 -375 0 -375
-125 0 -125 0 0 -125 0 -125 -125 0 -125 0 0 -750 0 -750 125 0 125 0 0 -250
0 -250 125 0 125 0 0 -500 0 -500 -125 0 -125 0 0 -250 0 -250 125 0 125 0 0
-125 0 -125 625 0 625 0 0 125 0 125 125 0 125 0 0 125 0 125 125 0 125 0 0
125 0 125 125 0 125 0 0 125 0 125 250 0 250 0 0 125 0 125 125 0 125 0 0 125
0 125 250 0 250 0 0 125 0 125 625 0 625 0 0 125 0 125 125 0 125 0 0 250 0
250 -125 0 -125 0 0 125 0 125 -250 0 -250 0 0 250 0 250 125 0 125 0 0 125 0
125 125 0 125 0 0 125 0 125 125 0 125 0 0 500 0 500 -125 0 -125 0 0 625 0
625 -125 0 -125 0 0 125 0 125 -375 0 -375 0 0 -125 0 -125 -125 0 -125 0 0
-250 0 -250 -250 0 -250 0 0 250 0 250 -125 0 -125 0 0 125 0 125 -375 0 -375
0 0 -125z m750 -375 l0 -250 125 0 125 0 0 -125 0 -125 250 0 250 0 0 125 0
125 125 0 125 0 0 250 0 250 375 0 375 0 0 -250 0 -250 -125 0 -125 0 0 -125
0 -125 125 0 125 0 0 -250 0 -250 125 0 125 0 0 -500 0 -500 -125 0 -125 0 0
-125 0 -125 -125 0 -125 0 0 -125 0 -125 -875 0 -875 0 0 125 0 125 125 0 125
0 0 125 0 125 -375 0 -375 0 0 125 0 125 250 0 250 0 0 125 0 125 -375 0 -375
0 0 375 0 375 125 0 125 0 0 125 0 125 125 0 125 0 0 125 0 125 125 0 125 0 0
125 0 125 -250 0 -250 0 0 125 0 125 375 0 375 0 0 -250z m-2000 -1625 l0
-375 -125 0 -125 0 0 -125 0 -125 -125 0 -125 0 0 -250 0 -250 125 0 125 0 0
-125 0 -125 125 0 125 0 0 -125 0 -125 250 0 250 0 0 125 0 125 125 0 125 0 0
125 0 125 125 0 125 0 0 250 0 250 125 0 125 0 0 -125 0 -125 125 0 125 0 0
-125 0 -125 750 0 750 0 0 -125 0 -125 250 0 250 0 0 -125 0 -125 250 0 250 0
0 -250 0 -250 -625 0 -625 0 0 -125 0 -125 -250 0 -250 0 0 -125 0 -125 -125
0 -125 0 0 -125 0 -125 -250 0 -250 0 0 -125 0 -125 -125 0 -125 0 0 -125 0
-125 -250 0 -250 0 0 -250 0 -250 -250 0 -250 0 0 125 0 125 -125 0 -125 0 0
-125 0 -125 -250 0 -250 0 0 250 0 250 125 0 125 0 0 250 0 250 125 0 125 0 0
250 0 250 -250 0 -250 0 0 250 0 250 -125 0 -125 0 0 750 0 750 125 0 125 0 0
125 0 125 125 0 125 0 0 250 0 250 125 0 125 0 0 -375z"/>
<path d="M5500 6375 l0 -125 -125 0 -125 0 0 -125 0 -125 125 0 125 0 0 125 0
125 125 0 125 0 0 125 0 125 -125 0 -125 0 0 -125z"/>
<path d="M4000 6125 l0 -125 125 0 125 0 0 125 0 125 -125 0 -125 0 0 -125z"/>
<path d="M2500 1500 l0 -250 125 0 125 0 0 250 0 250 -125 0 -125 0 0 -250z"/>
</g>
</svg>
